<?xml version="1.0" encoding="UTF-8"?>
<svg id="Layer_1" xmlns="http://www.w3.org/2000/svg" version="1.1" viewBox="0 0 641.22 832.55">
  <!-- Generator: Adobe Illustrator 30.6.0, SVG Export Plug-In . SVG Version: 2.1.4 Build 109)  -->
  <g>
    <path d="M63.75,763.8c4.9,0,9.08.89,12.52,2.67,3.44,1.78,6.04,4.12,7.79,7.01,1.75,2.89,2.63,6,2.63,9.33,0,3.5-.95,6.8-2.85,9.9-1.9,3.1-4.73,5.61-8.49,7.53-3.77,1.93-8.31,2.89-13.62,2.89h-6.48v.35h21.63l13.92,26.01h-43.79c-1.17-2.98-2.32-5.96-3.46-8.93-1.14-2.98-2.28-5.96-3.42-8.93-1.14-2.98-2.26-5.96-3.37-8.93h10.16c1.52,0,2.8-.29,3.85-.88,1.05-.58,1.85-1.34,2.41-2.28.55-.93.83-1.93.83-2.98s-.28-2.04-.83-2.98c-.56-.93-1.36-1.69-2.41-2.28-1.05-.58-2.34-.88-3.85-.88h-9.98c-.06,0-.09.01-.09.04s-.02.04-.04.04c-.03,0-.04.03-.04.09v11.43c0,.56,0,.8,0,.74v26.71H1.75v-65.68h62Z"/>
    <path d="M172.43,763.8c1.28,3.97,2.57,7.96,3.85,11.95,1.28,4,2.55,7.98,3.81,11.95,1.25,3.97,2.52,7.94,3.81,11.91,1.58,4.96,3.17,9.94,4.77,14.93,1.6,4.99,3.2,9.97,4.77,14.93h-44.66l-1.49-8.58h-11.91l-1.49,8.58h-42.91c1.75-5.49,3.49-10.96,5.21-16.42,1.72-5.46,3.46-10.93,5.21-16.42,1.17-3.62,2.33-7.25,3.5-10.9,1.17-3.65,2.32-7.3,3.46-10.95,1.14-3.65,2.29-7.31,3.46-10.99h60.6ZM136.53,814.77h9.63c.06,0,.09-.03.09-.09-.23-1.46-.7-4.26-1.4-8.41-.7-4.14-1.39-8.28-2.06-12.39-.67-4.12-1.15-6.9-1.44-8.36h-.09c-.29,1.4-.77,4.13-1.44,8.19-.67,4.06-1.34,8.16-2.01,12.3-.67,4.15-1.12,7.04-1.36,8.67,0,.06.03.09.09.09Z"/>
    <path d="M235.66,832.55c-7.47,0-14.13-.79-19.97-2.37-5.84-1.58-10.77-3.81-14.8-6.7-4.03-2.89-7.15-6.35-9.37-10.38-1.34-2.39-2.35-4.96-3.02-7.71-.67-2.74-1.01-5.63-1.01-8.67,0-7.76,1.98-14.32,5.95-19.66,3.97-5.34,9.43-9.35,16.38-12.04,6.95-2.68,14.94-4.12,24-4.29h1.84c14.42.29,25.67,2.98,33.76,8.06s12.89,12.38,14.41,21.89l-37.22,6.04v-.61c-.12-1.58-.67-2.88-1.66-3.9-.99-1.02-2.29-1.78-3.9-2.28-1.61-.5-3.4-.75-5.39-.75-3.27,0-5.91.63-7.92,1.88-2.02,1.26-3.02,3.08-3.02,5.47,0,1.63.47,3.02,1.4,4.16.93,1.14,2.22,1.99,3.85,2.54,1.63.56,3.53.83,5.69.83,3.21,0,5.84-.64,7.88-1.93,2.04-1.28,3.06-3.09,3.06-5.43l37.22,3.77c-.88,6.13-3.17,11.59-6.88,16.38s-9.02,8.6-15.94,11.43-15.37,4.25-25.35,4.25Z"/>
    <path d="M321.57,786.22h-.09v4.6s.03.04.09.04h36.78v12.35h-36.78c-.06,0-.09.02-.09.04v5.04h38.71v21.19h-74.17v-65.68h73.65v22.42h-38.09Z"/>
    <path d="M363.87,803.12h21.37c16.03,22.59,49.92,20.49,49.92,6.57,0-19.44-70.23-8.67-70.23-31.17,0-11.65,14.45-20.32,33.71-20.32,17.95,0,34.68,11.3,38.97,26.45h-19.62c-27.06-28.02-48.69-21.02-48.69-6.13,0,19,70.23,8.23,70.23,30.74,0,12.35-15.15,21.63-36.52,21.63-18.13,0-35.55-11.03-39.14-27.76Z"/>
    <path d="M442.16,759.34h64.8v12.26h-64.8v-12.26ZM482.44,771.6v57.8h-15.76v-42.03c0-10.51,5.25-15.76,15.76-15.76Z"/>
    <path d="M550.22,798.39c-1.66,18.83-12,32.49-25.48,32.49-21.63,0-26.8-17.51-12-40.9l19-30.56h16.64l33.28,70.06h-16.64l-14.8-31.09ZM527.02,814.24c11.82,0,20.67-8.93,20.84-20.93l-14.36-30.21-15.94,26.88c-7.53,13.84-3.5,24.26,9.46,24.26Z"/>
    <path d="M569.41,759.43h16.64l24.78,41.86,25.13-41.86h4.38l-27.32,45.54v24.52h-15.76v-24.52l-27.85-45.54Z"/>
  </g>
  <g>
    <path d="M63.75,13.14c4.9,0,9.08.89,12.52,2.67,3.44,1.78,6.04,4.12,7.79,7.01,1.75,2.89,2.63,6,2.63,9.33,0,3.5-.95,6.8-2.85,9.9-1.9,3.1-4.73,5.61-8.49,7.53-3.77,1.93-8.31,2.89-13.62,2.89h-6.48v.35h21.63l13.92,26.01h-43.79c-1.17-2.98-2.32-5.96-3.46-8.93-1.14-2.98-2.28-5.96-3.42-8.93-1.14-2.98-2.26-5.96-3.37-8.93h10.16c1.52,0,2.8-.29,3.85-.88,1.05-.58,1.85-1.34,2.41-2.28.55-.93.83-1.93.83-2.98s-.28-2.04-.83-2.98c-.56-.93-1.36-1.69-2.41-2.28-1.05-.58-2.34-.88-3.85-.88h-9.98c-.06,0-.09.01-.09.04s-.02.04-.04.04c-.03,0-.04.03-.04.09v11.43c0,.56,0,.8,0,.74v26.71H1.75V13.14h62Z"/>
    <path d="M172.43,13.14c1.28,3.97,2.57,7.96,3.85,11.95,1.28,4,2.55,7.98,3.81,11.95,1.25,3.97,2.52,7.94,3.81,11.91,1.58,4.96,3.17,9.94,4.77,14.93,1.6,4.99,3.2,9.97,4.77,14.93h-44.66l-1.49-8.58h-11.91l-1.49,8.58h-42.91c1.75-5.49,3.49-10.96,5.21-16.42,1.72-5.46,3.46-10.93,5.21-16.42,1.17-3.62,2.33-7.25,3.5-10.9,1.17-3.65,2.32-7.3,3.46-10.95,1.14-3.65,2.29-7.31,3.46-10.99h60.6ZM136.53,64.1h9.63c.06,0,.09-.03.09-.09-.23-1.46-.7-4.26-1.4-8.41-.7-4.14-1.39-8.28-2.06-12.39-.67-4.12-1.15-6.9-1.44-8.36h-.09c-.29,1.4-.77,4.13-1.44,8.19-.67,4.06-1.34,8.16-2.01,12.3-.67,4.15-1.12,7.04-1.36,8.67,0,.06.03.09.09.09Z"/>
    <path d="M235.66,81.88c-7.47,0-14.13-.79-19.97-2.37-5.84-1.58-10.77-3.81-14.8-6.7-4.03-2.89-7.15-6.35-9.37-10.38-1.34-2.39-2.35-4.96-3.02-7.71-.67-2.74-1.01-5.63-1.01-8.67,0-7.76,1.98-14.32,5.95-19.66,3.97-5.34,9.43-9.35,16.38-12.04,6.95-2.69,14.94-4.12,24-4.29h1.84c14.42.29,25.67,2.98,33.76,8.06,8.09,5.08,12.89,12.38,14.41,21.89l-37.22,6.04v-.61c-.12-1.58-.67-2.88-1.66-3.9-.99-1.02-2.29-1.78-3.9-2.28-1.61-.5-3.4-.75-5.39-.75-3.27,0-5.91.63-7.92,1.88-2.02,1.26-3.02,3.08-3.02,5.47,0,1.63.47,3.02,1.4,4.16.93,1.14,2.22,1.99,3.85,2.54,1.63.56,3.53.83,5.69.83,3.21,0,5.84-.64,7.88-1.93,2.04-1.28,3.06-3.09,3.06-5.43l37.22,3.77c-.88,6.13-3.17,11.59-6.88,16.38s-9.02,8.6-15.94,11.43-15.37,4.25-25.35,4.25Z"/>
    <path d="M321.57,35.55h-.09v4.6s.03.04.09.04h36.78v12.35h-36.78c-.06,0-.09.02-.09.04v5.04h38.71v21.19h-74.17V13.14h73.65v22.42h-38.09Z"/>
    <path d="M363.87,52.46h21.37c16.03,22.59,49.92,20.49,49.92,6.57,0-19.44-70.23-8.67-70.23-31.17,0-11.65,14.45-20.32,33.71-20.32,17.95,0,34.68,11.3,38.97,26.45h-19.62c-27.06-28.02-48.69-21.02-48.69-6.13,0,19,70.23,8.23,70.23,30.74,0,12.35-15.15,21.63-36.52,21.63-18.13,0-35.55-11.03-39.14-27.76Z"/>
    <path d="M442.16,8.67h64.8v12.26h-64.8v-12.26ZM482.44,20.93v57.8h-15.76v-42.03c0-10.51,5.25-15.76,15.76-15.76Z"/>
    <path d="M550.22,47.73c-1.66,18.83-12,32.49-25.48,32.49-21.63,0-26.8-17.51-12-40.9l19-30.56h16.64l33.28,70.06h-16.64l-14.8-31.09ZM527.02,63.58c11.82,0,20.67-8.93,20.84-20.93l-14.36-30.21-15.94,26.88c-7.53,13.84-3.5,24.26,9.46,24.26Z"/>
    <path d="M569.41,8.76h16.64l24.78,41.86,25.13-41.86h4.38l-27.32,45.54v24.52h-15.76v-24.52l-27.85-45.54Z"/>
  </g>
</svg>